<?xml version="1.0" encoding="utf-8"?>
<!-- Generator: Adobe Illustrator 23.0.6, SVG Export Plug-In . SVG Version: 6.00 Build 0)  -->
<svg version="1.1" id="Layer_1" xmlns="http://www.w3.org/2000/svg" xmlns:xlink="http://www.w3.org/1999/xlink" x="0px" y="0px"
	 viewBox="0 0 130.6 18.9" style="enable-background:new 0 0 130.6 18.9;" xml:space="preserve">
<style type="text/css">
	.st0{enable-background:new    ;}
	.st1{stroke:#000000;stroke-width:0.5;stroke-miterlimit:10;}
</style>
<g class="st0">
	<path class="st1" d="M22.6,6.9v6.6h-0.9V5.4h0.7l5.8,6.7V5.5h0.9v8.1h-0.8L22.6,6.9z"/>
	<path class="st1" d="M37.8,12.8v0.7h-5.9V5.4h5.8v0.7h-4.9v2.9H37v0.7h-4.3v3.1H37.8z"/>
	<path class="st1" d="M40,5.4l3.1,7.1l3.1-7.1h0.9l-3.6,8.1h-0.8l-3.6-8.1H40z"/>
	<path class="st1" d="M54.9,12.8v0.7H49V5.4h5.8v0.7h-4.9v2.9h4.3v0.7h-4.3v3.1H54.9z"/>
	<path class="st1" d="M57.1,13.5V5.4h3.7c0.4,0,0.7,0.1,1,0.2c0.3,0.1,0.6,0.3,0.8,0.6c0.2,0.2,0.4,0.5,0.5,0.8s0.2,0.6,0.2,0.9
		c0,0.3,0,0.6-0.1,0.8S63,9.3,62.8,9.6c-0.2,0.2-0.4,0.4-0.6,0.5c-0.2,0.1-0.5,0.2-0.8,0.3l2.1,3.1h-1l-2.1-3H58v3H57.1z M58,9.8
		h2.9c0.3,0,0.5-0.1,0.7-0.2c0.2-0.1,0.4-0.2,0.5-0.4c0.1-0.2,0.3-0.4,0.3-0.6c0.1-0.2,0.1-0.5,0.1-0.7c0-0.2,0-0.5-0.1-0.7
		S62.2,6.9,62,6.7c-0.2-0.2-0.3-0.3-0.6-0.4c-0.2-0.1-0.4-0.1-0.7-0.1H58V9.8z"/>
	<path class="st1" d="M74.6,7c-0.2-0.3-0.6-0.5-1-0.6c-0.4-0.2-0.9-0.2-1.4-0.2c-0.8,0-1.3,0.1-1.7,0.4S70,7.1,70,7.6
		c0,0.2,0,0.4,0.1,0.6s0.2,0.3,0.4,0.4c0.2,0.1,0.5,0.2,0.8,0.3s0.7,0.2,1.1,0.3c0.5,0.1,0.9,0.2,1.3,0.3s0.7,0.3,1,0.4
		c0.3,0.2,0.5,0.4,0.6,0.6s0.2,0.5,0.2,0.9c0,0.4-0.1,0.7-0.2,1s-0.4,0.5-0.7,0.7c-0.3,0.2-0.6,0.3-1,0.4c-0.4,0.1-0.8,0.1-1.3,0.1
		c-1.4,0-2.5-0.4-3.5-1.2l0.4-0.6c0.2,0.2,0.3,0.3,0.6,0.4c0.2,0.1,0.5,0.3,0.7,0.4c0.3,0.1,0.6,0.2,0.9,0.2c0.3,0.1,0.6,0.1,1,0.1
		c0.7,0,1.2-0.1,1.6-0.3c0.4-0.2,0.6-0.6,0.6-1.1c0-0.3-0.1-0.5-0.2-0.6s-0.3-0.3-0.5-0.4c-0.2-0.1-0.5-0.2-0.8-0.3
		c-0.3-0.1-0.7-0.2-1.1-0.3c-0.5-0.1-0.9-0.2-1.2-0.3c-0.3-0.1-0.6-0.2-0.9-0.4c-0.2-0.2-0.4-0.4-0.5-0.6c-0.1-0.2-0.2-0.5-0.2-0.8
		c0-0.4,0.1-0.7,0.2-1C69.5,6.4,69.7,6.2,70,6c0.3-0.2,0.6-0.3,1-0.4c0.4-0.1,0.8-0.2,1.3-0.2c0.6,0,1.1,0.1,1.6,0.2
		C74.3,5.8,74.7,6,75,6.3L74.6,7z"/>
	<path class="st1" d="M83.5,12.8v0.7h-5.9V5.4h5.8v0.7h-4.9v2.9h4.3v0.7h-4.3v3.1H83.5z"/>
	<path class="st1" d="M91.9,6.2h-3.1v7.4h-0.9V6.2h-3.1V5.4h7.1V6.2z"/>
	<path class="st1" d="M100.1,6.2h-3.1v7.4h-0.9V6.2H93V5.4h7.1V6.2z"/>
	<path class="st1" d="M102,13.5V5.4h0.9v7.4h5v0.7H102z"/>
	<path class="st1" d="M115.6,12.8v0.7h-5.9V5.4h5.8v0.7h-4.9v2.9h4.3v0.7h-4.3v3.1H115.6z"/>
</g>
</svg>
